# xmcd
#
# Track frame offsets:
#	150
#	14087
#	26587
#	37132
#	56990
#	69877
#	83282
#	94232
#	108002
#	125122
#	134400
#	155155
#	166602
#	182432
#
# Disc length: 2692 seconds
#
# Revision: 0
# Processed by: cddbd v1.5.2PL0 Copyright (c) Steve Scherf et al.
# Submitted via: audiograbber 1.83.01
#
DISCID=b60a820e
DTITLE=Peter Adams and Norm Dawe - Play It Cool
DYEAR=1997
DGENRE=Country
TTITLE0=Hillbilly Rock
TTITLE1=I Fall To Pieces
TTITLE2=Will The Circole Be Broken
TTITLE3=Leavin Your Mind
TTITLE4=In The Middle Of An Island
TTITLE5=Ballad Of John and Yoko
TTITLE6=Hey Little Girl
TTITLE7=Can't Help Falling In Love
TTITLE8=Boys
TTITLE9=Lover Please
TTITLE10=For The Goodtimes
TTITLE11=Too Much
TTITLE12=Just A Little Bit
TTITLE13=The Power Of Love
EXTD=
EXTT0=
EXTT1=
EXTT2=
EXTT3=
EXTT4=
EXTT5=
EXTT6=
EXTT7=
EXTT8=
EXTT9=
EXTT10=
EXTT11=
EXTT12=
EXTT13=
PLAYORDER=
